<?xml version="1.0" standalone="no"?>
<!DOCTYPE svg PUBLIC "-//W3C//DTD SVG 20010904//EN"
 "http://www.w3.org/TR/2001/REC-SVG-20010904/DTD/svg10.dtd">
<svg version="1.0" xmlns="http://www.w3.org/2000/svg"
 width="743.000000pt" height="743.000000pt" viewBox="0 0 743.000000 743.000000"
 preserveAspectRatio="xMidYMid meet">
<metadata>
Created by potrace 1.11, written by Peter Selinger 2001-2013
</metadata>
<g transform="translate(0.000000,743.000000) scale(0.100000,-0.100000)"
fill="#000000" stroke="none">
<path d="M5589 7036 c-2 -3 -55 -7 -117 -10 -109 -5 -186 -19 -208 -37 -6 -5
-13 -6 -17 -3 -3 3 -31 -7 -64 -22 -32 -14 -69 -31 -83 -37 -14 -6 -37 -20
-52 -30 -15 -10 -36 -20 -46 -22 -10 -2 -35 -14 -55 -28 -20 -13 -60 -32 -88
-42 -29 -9 -62 -23 -73 -31 -11 -8 -32 -14 -46 -14 -17 0 -43 -15 -73 -44 -26
-23 -48 -41 -50 -39 -2 2 -24 -15 -48 -38 -24 -23 -67 -59 -96 -80 -28 -21
-54 -43 -58 -49 -3 -6 -36 -35 -73 -64 -107 -87 -156 -137 -186 -192 -15 -29
-38 -57 -49 -63 -12 -7 -35 -31 -52 -54 -16 -23 -49 -67 -73 -97 -24 -30 -53
-67 -65 -82 -11 -15 -32 -50 -46 -79 -15 -28 -31 -51 -36 -52 -12 0 -22 -14
-56 -77 -13 -24 -31 -51 -39 -60 -8 -9 -28 -33 -45 -54 -16 -21 -35 -44 -42
-50 -6 -7 -26 -37 -44 -67 -18 -30 -37 -58 -44 -64 -6 -5 -24 -32 -40 -60 -16
-27 -32 -52 -36 -55 -3 -3 -18 -31 -33 -62 -15 -32 -32 -58 -37 -58 -5 0 -13
-9 -17 -19 -10 -27 -82 -111 -96 -111 -6 0 -33 -27 -59 -60 -27 -33 -53 -60
-57 -60 -5 0 -39 -27 -76 -60 -37 -32 -71 -57 -76 -54 -5 3 -32 -9 -60 -27
-28 -18 -61 -32 -74 -31 -12 1 -41 -5 -64 -13 -23 -8 -46 -12 -51 -9 -5 3 -30
-5 -56 -17 -27 -11 -63 -21 -81 -20 -22 0 -31 -3 -26 -11 4 -7 3 -8 -5 -4 -6
4 -28 2 -49 -5 -20 -7 -41 -12 -46 -11 -13 4 -66 -19 -66 -28 0 -4 -9 -10 -20
-13 -12 -3 -18 -1 -14 5 4 6 -6 8 -22 6 -18 -2 -28 -8 -26 -17 2 -9 -3 -11
-13 -7 -9 3 -29 -1 -45 -9 -16 -8 -37 -15 -47 -15 -22 0 -152 -52 -185 -74
-13 -9 -45 -22 -70 -30 -25 -7 -61 -25 -80 -40 -19 -14 -39 -26 -45 -26 -5 0
-18 -10 -29 -21 -15 -18 -70 -49 -94 -54 -3 0 -37 -22 -77 -48 -39 -26 -75
-47 -80 -47 -5 0 -22 -14 -38 -30 -16 -17 -57 -46 -90 -65 -65 -36 -107 -77
-147 -140 -14 -22 -43 -57 -64 -77 -138 -131 -191 -191 -218 -248 -11 -25 -24
-47 -27 -50 -4 -3 -19 -30 -35 -60 -15 -30 -34 -61 -40 -67 -7 -7 -20 -34 -30
-60 -10 -27 -21 -50 -25 -53 -4 -3 -15 -31 -25 -62 -10 -32 -21 -58 -25 -58
-5 0 -15 -22 -23 -49 -8 -27 -20 -60 -27 -73 -7 -13 -16 -43 -20 -68 -4 -25
-17 -81 -29 -125 -35 -135 -61 -297 -61 -380 0 -27 -4 -54 -8 -60 -5 -5 -18
-50 -31 -100 -17 -68 -21 -108 -18 -167 4 -72 -1 -94 -17 -68 -8 12 -25 13
-25 1 0 -4 12 -21 26 -36 21 -23 25 -35 21 -65 -7 -51 -35 -94 -52 -80 -8 6
-11 22 -9 36 3 16 -3 35 -16 51 -14 18 -20 21 -20 10 0 -10 -6 -14 -14 -11 -7
3 -16 -2 -20 -11 -4 -11 -12 -14 -27 -10 -19 6 -20 4 -14 -29 6 -32 4 -37 -23
-53 -24 -15 -28 -22 -21 -36 6 -9 16 -17 23 -17 8 0 19 -6 25 -14 7 -8 21 -12
33 -8 14 3 19 1 14 -6 -4 -7 -3 -12 3 -12 5 0 13 5 16 10 8 14 35 -6 35 -26 0
-7 6 -19 14 -27 25 -25 37 -167 16 -191 -13 -17 -15 -165 -3 -206 6 -19 11
-42 10 -50 0 -13 46 -113 88 -190 8 -14 16 -41 18 -60 6 -47 47 -171 64 -191
7 -8 18 -31 25 -50 21 -61 178 -233 257 -279 23 -14 54 -35 69 -48 15 -12 45
-27 67 -33 22 -6 45 -14 50 -19 6 -4 34 -13 63 -20 28 -6 52 -15 52 -19 0 -4
46 -18 102 -30 57 -13 117 -27 133 -32 54 -15 289 -11 345 6 8 3 32 7 53 9 48
7 195 55 227 75 13 9 26 14 28 12 3 -4 86 31 172 74 89 44 133 71 167 103 19
17 38 32 42 32 5 0 37 28 73 63 36 34 100 96 144 137 43 41 90 90 104 108 14
19 48 60 76 91 28 32 64 80 80 107 15 27 34 53 41 57 7 4 25 31 38 58 14 27
33 57 41 67 18 20 77 117 111 185 14 26 28 47 33 47 4 0 21 27 36 60 15 33 31
60 34 60 4 0 20 29 36 65 16 36 32 65 36 65 3 0 12 17 19 37 6 21 26 60 43 88
18 27 38 64 46 80 8 17 21 36 28 43 6 7 12 17 12 22 0 21 184 210 205 210 6 0
20 9 30 20 22 24 155 99 186 105 11 2 40 16 64 30 24 14 48 25 54 25 6 0 35
12 64 26 28 14 59 27 67 28 8 1 38 12 67 25 29 13 53 22 55 21 2 -1 28 12 58
30 30 18 60 33 65 34 6 1 36 19 67 39 31 20 60 37 64 37 4 0 32 19 62 43 100
77 157 117 182 129 14 7 52 34 86 60 34 26 64 45 67 42 12 -12 278 249 340
334 17 23 35 42 41 42 6 0 21 19 34 43 12 23 44 65 70 94 95 103 167 186 175
199 4 8 18 25 30 38 12 13 31 41 42 63 11 21 22 40 26 43 3 3 21 31 40 63 18
31 37 57 40 57 4 0 21 22 39 49 17 28 35 51 39 53 14 6 48 64 60 100 7 21 18
41 25 45 12 8 24 29 80 143 15 30 33 66 41 80 8 14 27 51 42 83 14 31 30 57
35 57 4 0 8 4 8 10 0 5 17 38 38 72 22 35 42 79 45 98 4 19 27 77 52 128 25
52 50 116 56 143 6 27 14 49 18 49 4 0 13 17 20 38 8 20 28 53 46 73 18 20 38
54 45 75 14 42 57 105 70 101 4 -1 30 19 56 45 101 97 139 150 155 215 7 26
15 53 20 58 16 21 36 143 33 205 -2 36 -3 70 -4 77 0 6 -7 19 -16 27 -8 9 -12
16 -7 16 4 0 3 4 -4 8 -6 4 -14 19 -16 33 -6 32 -43 105 -57 114 -6 4 -8 11
-4 16 5 9 -61 111 -78 117 -4 2 -8 8 -8 14 0 18 -59 86 -93 107 -18 11 -40 33
-50 50 -10 17 -30 37 -45 45 -15 8 -43 30 -63 49 -20 20 -61 48 -90 63 -30 16
-56 32 -58 37 -1 4 -28 19 -59 33 -31 14 -59 29 -62 33 -8 12 -87 51 -104 51
-8 0 -16 4 -18 8 -6 14 -168 62 -209 62 -21 0 -39 4 -39 9 0 11 -137 31 -212
30 -32 0 -62 2 -66 5 -5 3 -11 4 -13 2z m326 -86 c3 -5 1 -10 -4 -10 -6 0 -11
5 -11 10 0 6 2 10 4 10 3 0 8 -4 11 -10z m230 -80 c3 -5 1 -10 -4 -10 -6 0
-11 5 -11 10 0 6 2 10 4 10 3 0 8 -4 11 -10z"/>
</g>
</svg>
